<?xml version="1.0" standalone="no"?><!DOCTYPE svg PUBLIC "-//W3C//DTD SVG 1.1//EN" "http://www.w3.org/Graphics/SVG/1.1/DTD/svg11.dtd"><svg t="1590675907223" class="icon" viewBox="0 0 1024 1024" version="1.1" xmlns="http://www.w3.org/2000/svg" p-id="2481" xmlns:xlink="http://www.w3.org/1999/xlink" width="200" height="200"><defs><style type="text/css"></style></defs><path d="M710.040449 344.913541l-367.295294 363.283933c-3.990894 3.939729-9.18929 5.91471-14.387685 5.91471-5.28026 0-10.550287-2.026146-14.551414-6.078439-7.951089-8.032954-7.879458-20.98801 0.153496-28.939099l367.295294-363.283933c8.032954-7.951089 20.98801-7.879458 28.939099 0.153496C718.145034 324.007395 718.073402 336.962451 710.040449 344.913541z" p-id="2482"></path><path d="M546.084283 492.52239" p-id="2483"></path><path d="M972.794781 335.007937l-159.646 169.377642c-36.296671 38.496779-86.868463 59.095933-139.445936 59.106166-23.617907 0-47.645137-4.164856-70.966285-12.719696-10.611685-3.898797-16.045441-15.656585-12.156878-26.26827 3.898797-10.611685 15.656585-16.055674 26.26827-12.156878 59.812247 21.960151 125.170814 7.818059 166.512385-36.040844l159.646-169.377642c26.646893-28.263717 40.563858-65.716724 39.172161-105.441471-1.524726-43.316551-20.558222-83.952041-53.600779-114.426099-65.583694-60.477396-165.79607-59.945277-223.408209 1.166569l-159.646 169.377642c-19.637246 20.834514-32.510438 46.877657-37.238113 75.325569-4.625344 27.885094-1.320065 56.906058 9.567913 83.931574 4.216022 10.478655-0.859577 22.400173-11.338233 26.626427-10.488889 4.226255-22.410406-0.849344-26.63666-11.338233-13.681604-33.983999-17.825994-70.618361-11.972683-105.922425 6.057973-36.491099 22.594601-69.932746 47.839565-96.702436l159.646-169.377642c35.467793-37.637202 84.340897-58.614979 137.593751-59.075467 52.884464-0.440022 103.753015 19.391652 143.334499 55.892985 20.701484 19.084661 37.033451 41.505299 48.555879 66.6377 11.154038 24.344454 17.283642 50.070372 18.204617 76.440973C1024.860601 250.789836 1007.003907 298.721499 972.794781 335.007937z" p-id="2484"></path><path d="M554.456974 706.406688c-7.081279 33.063023-23.055089 63.526849-46.202275 88.075964l-159.646 169.367409c-35.467793 37.637202-84.340897 58.614979-137.593751 59.075467-0.593518 0.010233-1.197268 0.010233-1.790786 0.010233-52.209082 0-102.412484-19.811208-141.543713-55.903218-20.701484-19.084661-37.033451-41.505299-48.555879-66.627467-11.154038-24.354688-17.283642-50.070372-18.204617-76.451206-1.780553-50.735521 16.07614-98.667184 50.285267-134.963855l159.646-169.367409c52.638871-55.852052 135.291312-74.036203 210.555483-46.335305 10.601452 3.90903 16.035208 15.666818 12.136412 26.278503-3.90903 10.601452-15.666818 16.035208-26.278503 12.136412-59.842946-22.021549-125.252679-7.899924-166.624948 35.989679l-159.646 169.377642c-26.646893 28.27395-40.563858 65.726957-39.172161 105.451704 1.524726 43.316551 20.558222 83.952041 53.600779 114.426099 32.561603 30.023804 73.667813 45.005007 113.842815 45.01524 40.758286 0 80.554664-15.410991 109.565395-46.192042l159.646-169.367409c36.306904-38.517245 48.422849-93.0083 32.428573-145.759735-3.284813-10.816347 2.824325-22.246677 13.640672-25.53149 10.82658-3.27458 22.246677 2.834558 25.53149 13.650905C559.767933 640.730896 561.282427 674.489768 554.456974 706.406688z" p-id="2485"></path></svg>